<svg xmlns="http://www.w3.org/2000/svg" xmlns:xlink="http://www.w3.org/1999/xlink" viewBox="0 0 16.01 9.94"><defs><style>.cls-1{fill:#fff;}.cls-2{fill:url(#linear-gradient);}.cls-3{fill:url(#linear-gradient-2);}.cls-4{fill:url(#linear-gradient-3);}.cls-5{fill:url(#linear-gradient-4);}.cls-6{fill:url(#linear-gradient-5);}</style><linearGradient id="linear-gradient" x1="1.96" y1="4.94" x2="14.29" y2="4.94" gradientUnits="userSpaceOnUse"><stop offset="0" stop-color="#b53d7a"/><stop offset="0.07" stop-color="#ba3a72"/><stop offset="0.48" stop-color="#d52a48"/><stop offset="0.81" stop-color="#e6202e"/><stop offset="1" stop-color="#ec1c24"/></linearGradient><linearGradient id="linear-gradient-2" x1="8.7" y1="5.26" x2="8.7" y2="5.26" xlink:href="#linear-gradient"/><linearGradient id="linear-gradient-3" x1="1.96" y1="5.63" x2="14.29" y2="5.63" xlink:href="#linear-gradient"/><linearGradient id="linear-gradient-4" x1="3.17" y1="5.01" x2="12.34" y2="-0.59" gradientUnits="userSpaceOnUse"><stop offset="0" stop-color="#b53d7a"/><stop offset="0.08" stop-color="#bc396f"/><stop offset="0.33" stop-color="#d12c4e"/><stop offset="0.58" stop-color="#e02337"/><stop offset="0.8" stop-color="#e91e29"/><stop offset="1" stop-color="#ec1c24"/></linearGradient><linearGradient id="linear-gradient-5" x1="7.29" y1="2.28" x2="11.44" y2="2.28" xlink:href="#linear-gradient"/></defs><g id="Layer_2" data-name="Layer 2"><g id="Layer_1-2" data-name="Layer 1"><path class="cls-1" d="M10.91,3.71a1.67,1.67,0,0,0-.55.09,2.49,2.49,0,0,0-4.73-.22H5.48a1.78,1.78,0,0,0-1.4.67H4A1.43,1.43,0,1,0,4,7.11h6.92a1.7,1.7,0,1,0,0-3.4Z"/><line class="cls-2" x1="1.96" y1="6.06" x2="14.29" y2="3.83"/><line class="cls-3" x1="8.7" y1="5.26" x2="8.7" y2="5.26"/><path class="cls-4" d="M14.29,3.83c-.49.51-4.17,4.25-9,3.51A8.94,8.94,0,0,1,2,6.06"/><path class="cls-5" d="M6.76,4.79,6.18,1.2a7.13,7.13,0,0,1-1,2.74A7.24,7.24,0,0,1,3.82,5.46Z"/><path class="cls-6" d="M11.44,3.68l-3.73.88a14.79,14.79,0,0,0,0-2.36A13.34,13.34,0,0,0,7.29,0,9.52,9.52,0,0,1,9.87,1.76,9.28,9.28,0,0,1,11.44,3.68Z"/><path class="cls-1" d="M16,8.79a1.14,1.14,0,0,0-1.14-1.14,1.16,1.16,0,0,0-.42.08,1.56,1.56,0,0,0,0-.31,2.16,2.16,0,0,0-3.9-1.28A1.73,1.73,0,0,0,8.09,7.65H8a1.14,1.14,0,0,0-.16,2.27H15A1.15,1.15,0,0,0,16,8.79Z"/><path class="cls-1" d="M7.67,6.62a1.43,1.43,0,0,0-.5.09A2.31,2.31,0,0,0,5,4.93,2.3,2.3,0,0,0,2.83,6.5H2.69a1.58,1.58,0,0,0-1.28.65H1.32a1.4,1.4,0,0,0,0,2.79H7.67A1.61,1.61,0,0,0,9.24,8.28,1.61,1.61,0,0,0,7.67,6.62Z"/></g></g></svg>