<svg xmlns="http://www.w3.org/2000/svg" xmlns:xlink="http://www.w3.org/1999/xlink" viewBox="0 0 13.43 8.36"><defs><style>.cls-1{fill:url(#linear-gradient);}.cls-2{fill:url(#linear-gradient-2);}.cls-3{fill:url(#linear-gradient-3);}.cls-4{fill:url(#linear-gradient-4);}.cls-5{fill:url(#linear-gradient-5);}.cls-6{fill:url(#linear-gradient-6);}</style><linearGradient id="linear-gradient" x1="4.14" y1="6.72" x2="10.41" y2="1.06" gradientUnits="userSpaceOnUse"><stop offset="0" stop-color="#d1d3d4"/><stop offset="1" stop-color="#fff"/></linearGradient><linearGradient id="linear-gradient-2" x1="1.65" y1="4.74" x2="11.99" y2="4.74" gradientUnits="userSpaceOnUse"><stop offset="0" stop-color="#b53d7a"/><stop offset="0.07" stop-color="#ba3a72"/><stop offset="0.48" stop-color="#d52a48"/><stop offset="0.81" stop-color="#e6202e"/><stop offset="1" stop-color="#ec1c24"/></linearGradient><linearGradient id="linear-gradient-3" x1="2.66" y1="4.21" x2="10.36" y2="-0.49" gradientUnits="userSpaceOnUse"><stop offset="0" stop-color="#b53d7a"/><stop offset="0.08" stop-color="#bc396f"/><stop offset="0.33" stop-color="#d12c4e"/><stop offset="0.58" stop-color="#e02337"/><stop offset="0.8" stop-color="#e91e29"/><stop offset="1" stop-color="#ec1c24"/></linearGradient><linearGradient id="linear-gradient-4" x1="6.12" y1="1.92" x2="9.6" y2="1.92" xlink:href="#linear-gradient-2"/><linearGradient id="linear-gradient-5" x1="6.71" y1="9.86" x2="12.43" y2="4.75" xlink:href="#linear-gradient"/><linearGradient id="linear-gradient-6" x1="2.19" y1="8.75" x2="7.78" y2="3.38" xlink:href="#linear-gradient"/></defs><g id="Layer_2" data-name="Layer 2"><g id="Layer_1-2" data-name="Layer 1"><path class="cls-1" d="M9.15,3.12a1.43,1.43,0,0,0-.46.07,2.08,2.08,0,0,0-4-.18H4.6a1.46,1.46,0,0,0-1.17.57H3.35A1.21,1.21,0,1,0,3.35,6h5.8a1.43,1.43,0,0,0,0-2.86Z"/><path class="cls-2" d="M12,3.22c-.41.43-3.5,3.58-7.53,2.95A7.3,7.3,0,0,1,1.65,5.1"/><path class="cls-3" d="M5.68,4,5.19,1a6.27,6.27,0,0,1-.88,2.31A6.2,6.2,0,0,1,3.2,4.6Z"/><path class="cls-4" d="M9.6,3.1l-3.13.74a13.64,13.64,0,0,0,0-2A12.45,12.45,0,0,0,6.12,0,8.16,8.16,0,0,1,8.28,1.48,7.83,7.83,0,0,1,9.6,3.1Z"/><path class="cls-5" d="M13.43,7.4a1,1,0,0,0-.95-1,1,1,0,0,0-.36.06,1.1,1.1,0,0,0,0-.26A1.81,1.81,0,0,0,8.87,5.17,1.36,1.36,0,0,0,8.24,5,1.46,1.46,0,0,0,6.78,6.44h0a1,1,0,0,0-1,1,1,1,0,0,0,.83.94h5.94A1,1,0,0,0,13.43,7.4Z"/><path class="cls-6" d="M6.44,5.57A1.26,1.26,0,0,0,6,5.65a1.93,1.93,0,0,0-1.84-1.5,1.93,1.93,0,0,0-1.8,1.32H2.25A1.34,1.34,0,0,0,1.18,6H1.11a1.17,1.17,0,0,0,0,2.34H6.44A1.35,1.35,0,0,0,7.75,7,1.36,1.36,0,0,0,6.44,5.57Z"/></g></g></svg>